<svg width="122" height="123" viewBox="0 0 122 123" fill="none" xmlns="http://www.w3.org/2000/svg">
<path d="M43.3736 72.7424V75.2432C43.3736 78.5567 40.7034 81.2451 37.4123 81.2451C34.1211 81.2451 31.4509 78.5567 31.4509 75.2432V72.7424M49.4144 65.2651H25.4101M41.3865 65.2651V44.1385C41.3865 41.9078 43.1823 40.0972 45.4005 40.0972C47.6161 40.0972 49.4144 41.9053 49.4144 44.1385V44.9987C49.4144 47.2294 47.6186 49.04 45.4005 49.04H29.4241C27.206 49.04 25.4101 47.2294 25.4101 44.9987V44.1385C25.4101 41.9053 27.2085 40.0972 29.4241 40.0972C31.6422 40.0972 33.438 41.9078 33.438 44.1385V65.2651M37.4123 1V9.0025M57.2834 17.005L65.2318 9.0025M63.2447 24.8349H73.1554M17.5412 17.005L9.59272 9.0025M11.5798 24.8349H1.66663M63.1752 54.8068C60.7683 53.6014 58.0534 52.9237 55.1795 52.9237C54.4021 52.9237 53.6345 52.9737 52.8844 53.0713M25.4101 65.9603C18.4329 68.4486 13.4353 75.1482 13.4353 83.0256C13.4353 83.9834 13.5098 84.9237 13.6539 85.839C6.67663 88.3273 1.67656 95.0244 1.67656 102.902C1.67656 112.897 9.72436 121 19.6525 121H90.5203C100.448 121 108.496 112.897 108.496 102.902C108.496 95.4545 104.028 89.06 97.6441 86.2816C97.8353 85.2238 97.9397 84.1385 97.9397 83.0256C97.9397 73.03 89.8919 64.9275 79.9638 64.9275C77.3358 64.9275 74.8445 65.5002 72.5941 66.518C71.8613 63.6371 70.4405 61.0313 68.5205 58.8931M100.592 21.4939L74.5091 47.7546M100.592 21.4939L93.2998 14.1516M100.592 21.4939L107.885 28.8362M74.5091 47.7546L75.2717 40.4123H67.2164M74.5091 47.7546L81.7994 46.7268V55.0969M67.2164 40.4123L93.2998 14.1516M67.2164 40.4123L61.3495 61.0037L81.7994 55.0969M93.2998 14.1516L99.1021 8.30978L113.688 22.9944L107.885 28.8362M107.885 28.8362L81.7994 55.0969M65.1225 47.7546L74.5091 57.2026M51.322 35.0106C51.322 27.2757 45.0949 21.0063 37.4123 21.0063M42.8942 121C42.0373 119.194 41.5554 117.171 41.5554 115.036C41.5554 107.391 47.713 101.191 55.3062 101.191C62.8994 101.191 69.057 107.391 69.057 115.036C69.057 117.171 68.5776 119.194 67.7182 121M81.4144 121V108.594H77.0725C76.613 107.016 75.9895 105.51 75.2195 104.092L78.2896 101.001L69.2433 91.8934L66.1732 94.9844C64.7673 94.2091 63.2695 93.5814 61.7022 93.1188V88.7474H48.9077V93.1188C47.3404 93.5814 45.8451 94.2091 44.4367 94.9844L41.3666 91.8934L32.3203 101.001L35.3904 104.092C34.6204 105.508 33.9969 107.016 33.5374 108.594H29.1956V121M88.8437 82.2379C88.8437 77.0663 84.6782 72.8725 79.5415 72.8725M91.0643 113.633C96.879 113.633 101.593 108.886 101.593 103.032C101.593 97.1776 96.879 92.4311 91.0643 92.4311M37.4123 13.5089C49.5038 13.5089 59.3077 23.3795 59.3077 35.5533C59.3077 39.6196 58.2943 43.4758 56.3097 46.6968C52.6559 52.6236 49.4144 59.7759 49.4144 63.2219V68.6036C49.4144 70.8893 47.5739 72.7424 45.3036 72.7424H29.521C27.2507 72.7424 25.4101 70.8893 25.4101 68.6036V63.2219C25.4101 59.7759 22.1686 52.6236 18.5148 46.6968C16.5302 43.4758 15.5168 39.6196 15.5168 35.5533C15.5168 23.3795 25.3207 13.5089 37.4123 13.5089ZM103.061 4.32354L99.1518 8.25977L113.737 22.9444L117.647 19.0081C121.673 14.9544 121.673 8.37981 117.647 4.32354C113.62 0.269772 107.09 0.269772 103.061 4.32354Z" stroke="#B3D558" stroke-width="2.38" stroke-miterlimit="10"/>
</svg>
