<svg width="102" height="102" viewBox="0 0 102 102" fill="none" xmlns="http://www.w3.org/2000/svg">
<path d="M86.7057 84.3723V93.2801C86.7057 97.545 83.2215 101 78.925 101H23.2706C18.9721 101 15.4898 97.543 15.4898 93.2801V47.6222M67.0613 12.6402H78.923C83.2215 12.6402 86.7037 16.0972 86.7037 20.3601V73.4805M15.4878 26.5237V20.3601C15.4878 16.0952 18.9721 12.6402 23.2686 12.6402H35.1302M81.3177 84.3723V92.7495C81.3177 94.3552 80.0066 95.6561 78.3882 95.6561H23.8054C22.187 95.6561 20.8759 94.3552 20.8759 92.7495V47.6222M67.0613 17.9841H78.3882C80.0066 17.9841 81.3177 19.285 81.3177 20.8907V73.4785M20.8759 26.5237V20.8907C20.8759 19.285 22.187 17.9841 23.8054 17.9841H35.1322M48.758 73.4805H88.2144V84.3743H48.758V73.4805ZM48.758 73.4805V84.3723L39.2471 78.9254L48.758 73.4805ZM43.3181 76.595V81.2578M42.7034 8.25458C42.7034 4.13824 46.4611 1 51.0968 1C55.7325 1 59.4902 4.13824 59.4902 8.25458M48.8099 5.17178H53.3837M41.1189 16.4576H61.0746M5.56786 32.2973H30.9635M5.56786 37.0729H30.9635M5.56786 41.8486H30.9635M63.3875 8.25458C65.415 8.25458 67.0613 9.88805 67.0613 11.8997V22.3678C67.0613 22.8766 66.6463 23.2884 66.1334 23.2884H36.0602C35.5473 23.2884 35.1322 22.8766 35.1322 22.3678V11.8997C35.1322 9.88805 36.7786 8.25458 38.8061 8.25458H63.3875ZM48.758 76.595H88.2144V81.2578H48.758V76.595ZM93.4069 84.3723H88.2144V73.4785H93.4069V84.3723ZM93.4069 73.4805H97.2843C99.3337 73.4805 101 75.1318 101 77.1672V80.6895C101 82.723 99.3357 84.3762 97.2843 84.3762H93.4069V73.4805ZM30.5284 47.6222H28.6506V54.362L22.1291 47.6222H6.00289C3.23903 47.6222 1 45.3987 1 42.6584V31.4914C1 28.7492 3.24102 26.5277 6.00289 26.5277H30.5265C33.2903 26.5277 35.5293 28.7512 35.5293 31.4914V42.6584C35.5293 45.4007 33.2883 47.6222 30.5265 47.6222H30.5284Z" stroke="white" stroke-width="2" stroke-miterlimit="10"/>
<path d="M50.4983 54.0366C49.0571 54.0366 48.0361 52.6118 48.5954 51.3194C48.5984 51.3108 48.6013 51.305 48.6043 51.2964C48.9505 50.5106 49.3974 49.8083 49.9479 49.1895C50.4954 48.5706 51.0813 47.995 51.7028 47.4596C52.3243 46.9271 52.9102 46.4061 53.4577 45.8995C54.0052 45.393 54.455 44.8605 54.8013 44.2963C55.1475 43.7351 55.3222 43.1018 55.3222 42.3995C55.3222 41.2194 54.8309 40.2638 53.8484 39.5327C52.8658 38.8016 51.5519 38.4361 49.9035 38.4361C48.2551 38.4361 46.9352 38.7181 45.7632 39.2794C45.124 39.5874 44.544 39.9645 44.0202 40.4163C43.2122 41.11 42.0166 41.1647 41.114 40.5948C39.7053 39.7054 39.6165 37.728 40.9394 36.7263C41.6822 36.1651 42.502 35.6729 43.4016 35.2555C45.3696 34.3431 47.6957 33.8854 50.3829 33.8854C52.493 33.8854 54.3426 34.1877 55.9318 34.7921C57.521 35.3966 58.764 36.2687 59.6607 37.4056C60.5574 38.5426 61.0042 39.927 61.0042 41.559C61.0042 42.6845 60.8237 43.666 60.4627 44.5093C60.1016 45.3527 59.6399 46.0895 59.0747 46.7227C58.5094 47.356 57.9116 47.946 57.2754 48.4929C56.6391 49.0398 56.0413 49.5838 55.476 50.1163C54.9138 50.6517 54.458 51.2273 54.1118 51.8462C53.9815 52.0793 53.875 52.3268 53.7951 52.5888C53.5347 53.435 52.7682 54.0366 51.8596 54.0366H50.4983ZM50.8594 64.1136C49.8472 64.1136 49.0156 63.7912 48.3675 63.1436C47.7165 62.4959 47.3909 61.7246 47.3909 60.8236C47.3909 59.9227 47.7165 59.1571 48.3675 58.5267C49.0186 57.8935 49.8472 57.5798 50.8594 57.5798C51.8715 57.5798 52.6942 57.8964 53.3305 58.5267C53.9667 59.16 54.2834 59.9256 54.2834 60.8236C54.2834 61.7217 53.9638 62.4959 53.3305 63.1436C52.6942 63.7912 51.8715 64.1136 50.8594 64.1136Z" fill="white"/>
</svg>
