<svg width="124" height="121" viewBox="0 0 124 121" fill="none" xmlns="http://www.w3.org/2000/svg">
<path d="M42.41 2.49C42.41 2.49 55.18 9.05 60.92 22.64C66.66 36.23 66.89 49 66.89 53.21V88.94M78.75 25.31C89.2 9.36 113.73 8.6 121.03 8.74C121.87 8.76 122.29 9.72 121.75 10.35C118.18 14.46 108.85 26.09 108.95 35.3C109.06 45.73 103.34 59.43 87.87 55.8C77.19 53.29 75.09 39.96 75.09 39.96M121.79 9.16C121.79 9.16 102.5 19.06 95.12 31.87C87.74 44.68 86.92 53.36 86.1 60.55C85.28 67.74 82 77.23 79.66 81.56M18.93 85.02C18.93 85.02 21.45 80 26.25 80.05C31.05 80.1 45.93 81.62 50.03 83.26C54.13 84.9 59.18 88.77 63.27 88.94C67.36 89.11 75.09 88.94 78.02 88.94C80.95 88.94 84.89 91.58 84.89 95.44C84.89 99.3 82.83 102.47 77.32 103.29C71.81 104.11 60.35 104.34 51.91 102.59M83.72 91.98C83.72 91.98 93.13 88.88 97.58 86.89C102.03 84.9 107.3 83.02 110.35 84.55C113.4 86.08 113.79 88.77 113.63 91.11M81.04 102.15C81.04 102.15 96.56 98.13 103.34 95.2C110.12 92.27 115.23 89.81 117.48 90.87C119.73 91.93 120.08 93.56 119.84 95.2C119.6 96.84 113.05 102.93 104.14 107.5C95.24 112.07 77.32 119.1 59.04 119.1C40.76 119.1 26.12 115.7 23.31 114.41C20.5 113.12 18.92 112.07 18.92 105.98M105.49 56.39C105.49 66.05 101.91 74.87 96.04 81.64C92.22 79.34 87.96 77.48 83.37 76.16C78.22 74.67 72.69 73.82 66.9 73.82C61.11 73.82 55.58 74.67 50.43 76.16M50.42 76.16C48.7 70.37 47.69 63.62 47.69 56.39H28.3M28.3 56.39C28.3 63.25 30.1 69.68 33.25 75.25M28.3 56.39C28.3 47.24 31.5 38.85 36.82 32.23M36.82 32.23C38.76 29.81 40.99 27.64 43.45 25.75M36.82 32.23C38.75 33.45 40.79 34.55 42.94 35.52M48.49 45.34C47.97 48.84 47.69 52.55 47.69 56.38M47.69 56.38H77.33M47.69 56.38C47.69 63.62 48.7 70.36 50.42 76.15C55.57 74.66 61.1 73.81 66.89 73.81C72.68 73.81 78.21 74.66 83.36 76.15M41.6 2.98C41.28 2.57 41.52 2 42.04 2C45.9 2.03 57.9 2.84 68.31 11C76.6 17.5 79.19 23.2 79.19 29.55C79.19 35.9 73.92 43.96 66.19 45.48C58.58 45.13 50.12 43.08 49.67 34.09C49.18 24.18 46.52 9.33 41.59 2.98H41.6ZM2.66 80.05H18.27C18.6345 80.05 18.93 80.3455 18.93 80.71V114.58C18.93 114.945 18.6345 115.24 18.27 115.24H2.66C2.29549 115.24 2 114.945 2 114.58V80.71C2 80.3455 2.29549 80.05 2.66 80.05ZM12.53 109.17C12.53 110.313 11.6032 111.24 10.46 111.24C9.31677 111.24 8.39 110.313 8.39 109.17C8.39 108.027 9.31677 107.1 10.46 107.1C11.6032 107.1 12.53 108.027 12.53 109.17Z" stroke="#B3D558" stroke-width="2.38" stroke-miterlimit="10"/>
</svg>
