<svg width="141" height="130" viewBox="0 0 141 130" fill="none" xmlns="http://www.w3.org/2000/svg">
<g clip-path="url(#clip0_258_44)">
<g filter="url(#filter0_d_258_44)">
<path d="M36.14 81.19C36.14 81.19 44.12 82.01 53.12 88.56C62.73 95.55 65.95 99.31 65.95 99.31" stroke="#006037" stroke-width="2.05" stroke-miterlimit="10"/>
</g>
<path opacity="0.5" d="M59.93 98.78C63.35 97.05 66.42 94.89 70.88 89.19C69.32 87.79 67.67 86.43 65.95 85.17C60.78 101.43 47.38 96.75 47.38 96.75C51.81 99.1 55.78 100.87 59.92 98.78H59.93Z" fill="#006037"/>
<g filter="url(#filter1_d_258_44)">
<path d="M105.36 52.81C105.36 52.81 97.38 51.99 88.38 45.44C78.77 38.45 75.55 34.69 75.55 34.69" stroke="#006037" stroke-width="2.05" stroke-miterlimit="10"/>
</g>
<path opacity="0.5" d="M81.57 35.22C78.15 36.95 75.08 39.11 70.62 44.81C72.18 46.21 73.83 47.57 75.55 48.83C80.72 32.57 94.12 37.25 94.12 37.25C89.69 34.9 85.72 33.13 81.58 35.22H81.57Z" fill="#006037"/>
<path d="M66.99 85.46C61.25 85.46 55.82 84.36 51.7 82.36C46.78 79.97 44.18 76.52 44.18 72.4C44.18 66.37 47 62.77 52.55 61.71C53.76 61.48 54.68 60.56 54.91 59.36C55.56 55.99 57.34 53.26 60.2 51.25C64.21 48.43 70.38 47.01 78.56 47.01C91.53 47.01 97.16 53.48 98.05 59.02C98.92 64.48 95.59 69.58 89.95 71.43C88.92 71.77 88.19 72.71 88.1 73.84C87.44 81.88 77.02 85.48 66.98 85.48L66.99 85.46Z" stroke="#006D41" stroke-width="0.67" stroke-miterlimit="10" stroke-linecap="round" stroke-dasharray="0.11 1.8"/>
<path d="M0 0C11.05 0 20 8.95 20 20V109.5C20 120.55 28.95 129.5 40 129.5H101C112.05 129.5 121 120.55 121 109.5V20C121 8.95 129.95 0 141 0H0ZM89.54 70.14C87.98 70.65 86.9 72.08 86.76 73.72C86.13 81.37 74.9 84.7 64.32 84.03C66.63 85.6 68.83 87.36 70.88 89.2C66.41 94.9 63.35 97.06 59.93 98.79C55.79 100.88 51.82 99.11 47.39 96.76C42.15 92.66 38.02 87.23 35.5 80.97C39.45 78.45 43.53 77.51 47.58 77.68C46.29 76.18 45.53 74.42 45.53 72.41C45.53 65.68 49.32 63.71 52.81 63.04C54.55 62.71 55.91 61.36 56.24 59.62C57.02 55.56 60.13 49.31 75.04 48.46C73.5 47.3 72.02 46.08 70.62 44.82C75.09 39.12 78.15 36.96 81.57 35.23C85.71 33.14 89.68 34.91 94.11 37.26C99.35 41.36 103.48 46.79 106 53.05C102.65 55.19 99.21 56.19 95.78 56.34C98.42 61.65 96.02 68.02 89.54 70.14Z" fill="white"/>
<path d="M47.58 77.67C43.53 77.49 39.45 78.43 35.5 80.96C38.02 87.22 42.15 92.66 47.39 96.75C51.82 99.11 55.79 100.87 59.93 98.78C63.35 97.05 66.42 94.89 70.88 89.19C68.83 87.36 66.63 85.59 64.32 84.02C57.41 83.58 50.8 81.43 47.57 77.67H47.58Z" fill="white"/>
<path d="M47.58 77.67C43.53 77.49 39.45 78.43 35.5 80.96C38.02 87.22 42.15 92.66 47.39 96.75C51.82 99.11 55.79 100.87 59.93 98.78C63.35 97.05 66.42 94.89 70.88 89.19C68.83 87.36 66.63 85.59 64.32 84.02C57.41 83.58 50.8 81.43 47.57 77.67H47.58Z" fill="url(#paint0_linear_258_44)"/>
<path d="M94.11 37.25C89.68 34.89 85.71 33.13 81.57 35.22C78.15 36.95 75.08 39.11 70.62 44.81C72.03 46.07 73.51 47.3 75.04 48.45C76.15 48.39 77.32 48.35 78.57 48.35C88.07 48.35 93.62 51.99 95.78 56.33C99.21 56.18 102.65 55.18 106 53.04C103.48 46.78 99.35 41.34 94.11 37.25Z" fill="white"/>
<path d="M94.11 37.25C89.68 34.89 85.71 33.13 81.57 35.22C78.15 36.95 75.08 39.11 70.62 44.81C72.03 46.07 73.51 47.3 75.04 48.45C76.15 48.39 77.32 48.35 78.57 48.35C88.07 48.35 93.62 51.99 95.78 56.33C99.21 56.18 102.65 55.18 106 53.04C103.48 46.78 99.35 41.34 94.11 37.25Z" fill="url(#paint1_linear_258_44)"/>
<path d="M61.09 67.01C60.25 66.57 59.31 66.34 58.26 66.34C57.21 66.34 56.2 66.58 55.34 67.04C54.48 67.51 53.8 68.16 53.31 68.99C52.81 69.82 52.57 70.77 52.57 71.84C52.57 72.91 52.82 73.84 53.32 74.67C53.82 75.5 54.53 76.15 55.45 76.63C56.37 77.11 57.44 77.34 58.66 77.34C59.63 77.34 60.48 77.19 61.22 76.89C61.96 76.59 62.58 76.17 63.07 75.61L61.42 73.82C61.06 74.16 60.67 74.42 60.24 74.59C59.81 74.76 59.31 74.85 58.74 74.85C58.1 74.85 57.55 74.73 57.08 74.5C56.61 74.27 56.25 73.93 55.99 73.49C55.85 73.25 55.75 72.99 55.69 72.71H63.76C63.77 72.58 63.79 72.44 63.8 72.28C63.81 72.13 63.82 71.99 63.82 71.87C63.82 70.72 63.57 69.73 63.09 68.9C62.6 68.07 61.94 67.44 61.1 66.99L61.09 67.01ZM56.88 69.03C57.28 68.8 57.75 68.68 58.28 68.68C58.81 68.68 59.27 68.8 59.67 69.03C60.07 69.26 60.38 69.58 60.6 69.99C60.75 70.26 60.84 70.57 60.89 70.9H55.64C55.69 70.57 55.78 70.27 55.93 70C56.15 69.58 56.47 69.26 56.87 69.03H56.88Z" fill="#77C15B"/>
<path d="M75.27 68.73L74.56 67.15L69.1 69.6L70.79 65.54C71.13 64.72 71.36 64.02 71.47 63.43C71.58 62.85 71.59 62.33 71.51 61.88C71.43 61.43 71.3 61 71.12 60.59C70.77 59.82 70.28 59.24 69.64 58.86C69 58.48 68.26 58.3 67.41 58.3C66.57 58.3 65.67 58.52 64.73 58.95C63.59 59.46 62.69 60.12 62.01 60.93C61.33 61.74 60.91 62.62 60.75 63.56L63.5 63.98C63.62 63.4 63.86 62.91 64.22 62.5C64.58 62.09 65.03 61.77 65.56 61.53C66.22 61.23 66.79 61.14 67.26 61.26C67.73 61.38 68.07 61.69 68.3 62.2C68.39 62.39 68.45 62.62 68.48 62.88C68.52 63.14 68.51 63.45 68.45 63.81C68.39 64.17 68.25 64.61 68.02 65.13L65.2 71.94L66.05 73.84L75.63 69.54L75.6 69.48H78.36V58.8H75.26V68.73H75.27Z" fill="#77C15B"/>
<path d="M76.82 57.31C77.4 57.31 77.87 57.14 78.22 56.8C78.57 56.46 78.75 56.04 78.75 55.52C78.75 55.03 78.57 54.63 78.21 54.32C77.85 54.01 77.39 53.85 76.82 53.85C76.25 53.85 75.79 54.02 75.43 54.35C75.07 54.68 74.89 55.09 74.89 55.58C74.89 56.07 75.07 56.48 75.43 56.81C75.79 57.14 76.25 57.31 76.82 57.31Z" fill="#77C15B"/>
<path d="M84.94 59.79C85.3 59.74 85.8 59.86 86.44 60.13C86.89 60.32 87.33 60.57 87.77 60.88C88.21 61.19 88.6 61.58 88.96 62.07L90.77 60.45C90.43 59.97 89.94 59.51 89.31 59.07C88.68 58.63 88.03 58.26 87.36 57.98C86.41 57.57 85.54 57.36 84.74 57.35C83.94 57.33 83.26 57.49 82.7 57.81C82.14 58.13 81.73 58.6 81.46 59.22C81.22 59.78 81.13 60.28 81.19 60.73C81.25 61.17 81.42 61.57 81.68 61.93C81.94 62.29 82.27 62.61 82.65 62.89C83.03 63.18 83.42 63.44 83.81 63.68C84.2 63.92 84.56 64.15 84.89 64.36C85.22 64.57 85.46 64.78 85.63 64.99C85.79 65.2 85.83 65.42 85.73 65.65C85.61 65.93 85.38 66.09 85.04 66.13C84.7 66.17 84.2 66.05 83.54 65.77C82.94 65.52 82.38 65.17 81.84 64.73C81.3 64.29 80.87 63.84 80.54 63.36L78.72 65C79.04 65.5 79.54 66.01 80.23 66.54C80.92 67.07 81.68 67.52 82.52 67.87C83.51 68.29 84.4 68.51 85.2 68.54C86 68.57 86.69 68.42 87.25 68.11C87.82 67.8 88.23 67.34 88.49 66.73C88.73 66.17 88.81 65.67 88.74 65.23C88.67 64.79 88.5 64.39 88.24 64.05C87.98 63.7 87.66 63.38 87.28 63.09C86.9 62.8 86.51 62.54 86.12 62.3C85.72 62.07 85.36 61.84 85.04 61.61C84.72 61.39 84.48 61.17 84.32 60.96C84.16 60.75 84.13 60.52 84.23 60.28C84.34 60.01 84.58 59.86 84.95 59.81L84.94 59.79Z" fill="#77C15B"/>
<path d="M66.99 85.46C61.25 85.46 55.82 84.36 51.7 82.36C46.78 79.97 44.18 76.52 44.18 72.4C44.18 66.37 47 62.77 52.55 61.71C53.76 61.48 54.68 60.56 54.91 59.36C55.56 55.99 57.34 53.26 60.2 51.25C64.21 48.43 70.38 47.01 78.56 47.01C91.53 47.01 97.16 53.48 98.05 59.02C98.92 64.48 95.59 69.58 89.95 71.43C88.92 71.77 88.19 72.71 88.1 73.84C87.44 81.88 77.02 85.48 66.98 85.48L66.99 85.46Z" stroke="#006D41" stroke-width="0.67" stroke-miterlimit="10" stroke-linecap="round" stroke-dasharray="0.11 1.8"/>
<path d="M85.23 32.07C66.41 23.75 42.59 34.06 35.5 52.7C60.76 67.3 75.72 28.55 94.11 37.25C91.42 35.14 88.43 33.39 85.23 32.07Z" fill="url(#paint2_linear_258_44)"/>
<path d="M54.35 32.99C60.15 34.08 65.48 39.88 70.6 44.78C78.56 38.8 86 33.41 94.11 37.25C91.42 35.14 88.43 33.39 85.23 32.07C75.26 27.66 63.89 28.48 54.35 33V32.99Z" fill="url(#paint3_linear_258_44)"/>
<mask id="mask0_258_44" style="mask-type:luminance" maskUnits="userSpaceOnUse" x="35" y="29" width="60" height="28">
<path d="M85.23 32.07C66.41 23.75 42.59 34.06 35.5 52.7C60.76 67.3 75.72 28.55 94.11 37.25C91.42 35.14 88.43 33.39 85.23 32.07Z" fill="white"/>
</mask>
<g mask="url(#mask0_258_44)">
<path d="M35.51 52.74C43.7 50 50.98 45.01 57.58 39.54C64.05 34.36 72.36 28.1 81.15 29.31L80.87 30.51C76.79 29.71 72.46 31.26 68.77 33.03C60.99 36.82 54.9 43.31 47.36 47.53C43.61 49.7 39.72 51.67 35.55 52.91L35.51 52.75V52.74Z" fill="#DAF60B"/>
</g>
<path d="M56.27 101.93C75.09 110.25 98.91 99.94 106 81.3C80.74 66.7 65.78 105.45 47.39 96.75C50.08 98.86 53.07 100.61 56.27 101.93Z" fill="url(#paint4_linear_258_44)"/>
<path d="M87.15 101.01C81.35 99.92 76.02 94.12 70.9 89.22C62.94 95.2 55.5 100.59 47.39 96.75C50.08 98.86 53.07 100.61 56.27 101.93C66.24 106.34 77.61 105.52 87.15 101V101.01Z" fill="url(#paint5_linear_258_44)"/>
<mask id="mask1_258_44" style="mask-type:luminance" maskUnits="userSpaceOnUse" x="47" y="77" width="59" height="28">
<path d="M56.27 101.93C75.09 110.25 98.91 99.94 106 81.3C80.74 66.7 65.78 105.45 47.39 96.75C50.08 98.86 53.07 100.61 56.27 101.93Z" fill="white"/>
</mask>
<g mask="url(#mask1_258_44)">
<path d="M105.99 81.26C97.8 84 90.52 88.99 83.92 94.46C77.45 99.64 69.14 105.9 60.35 104.69L60.63 103.49C64.71 104.29 69.04 102.74 72.73 100.97C80.51 97.18 86.6 90.69 94.14 86.47C97.89 84.3 101.78 82.33 105.95 81.09L105.99 81.25V81.26Z" fill="#DAF60B"/>
</g>
<path d="M45.53 72.4C45.53 65.67 49.32 63.7 52.81 63.03C54.55 62.7 55.91 61.35 56.24 59.61C57.08 55.25 60.6 48.35 78.57 48.35C99.67 48.35 101.33 66.28 89.54 70.14C87.98 70.65 86.9 72.08 86.76 73.72C85.55 88.37 45.53 87.19 45.53 72.4Z" stroke="#006D41" stroke-width="0.22" stroke-miterlimit="10"/>
</g>
<defs>
<filter id="filter0_d_258_44" x="34.8139" y="78.9504" width="33.1343" height="22.2473" filterUnits="userSpaceOnUse" color-interpolation-filters="sRGB">
<feFlood flood-opacity="0" result="BackgroundImageFix"/>
<feColorMatrix in="SourceAlpha" type="matrix" values="0 0 0 0 0 0 0 0 0 0 0 0 0 0 0 0 0 0 127 0" result="hardAlpha"/>
<feOffset/>
<feGaussianBlur stdDeviation="0.61"/>
<feColorMatrix type="matrix" values="0 0 0 0 0 0 0 0 0 0.427451 0 0 0 0 0.254902 0 0 0 0.75 0"/>
<feBlend mode="normal" in2="BackgroundImageFix" result="effect1_dropShadow_258_44"/>
<feBlend mode="normal" in="SourceGraphic" in2="effect1_dropShadow_258_44" result="shape"/>
</filter>
<filter id="filter1_d_258_44" x="73.5519" y="32.8022" width="33.1342" height="22.2473" filterUnits="userSpaceOnUse" color-interpolation-filters="sRGB">
<feFlood flood-opacity="0" result="BackgroundImageFix"/>
<feColorMatrix in="SourceAlpha" type="matrix" values="0 0 0 0 0 0 0 0 0 0 0 0 0 0 0 0 0 0 127 0" result="hardAlpha"/>
<feOffset/>
<feGaussianBlur stdDeviation="0.61"/>
<feColorMatrix type="matrix" values="0 0 0 0 0 0 0 0 0 0.427451 0 0 0 0 0.254902 0 0 0 0.75 0"/>
<feBlend mode="normal" in2="BackgroundImageFix" result="effect1_dropShadow_258_44"/>
<feBlend mode="normal" in="SourceGraphic" in2="effect1_dropShadow_258_44" result="shape"/>
</filter>
<linearGradient id="paint0_linear_258_44" x1="49.89" y1="89.52" x2="55.95" y2="81.37" gradientUnits="userSpaceOnUse">
<stop stop-color="#006D41"/>
<stop offset="1" stop-color="#009960"/>
</linearGradient>
<linearGradient id="paint1_linear_258_44" x1="91.61" y1="44.48" x2="85.55" y2="52.63" gradientUnits="userSpaceOnUse">
<stop stop-color="#006D41"/>
<stop offset="1" stop-color="#009960"/>
</linearGradient>
<linearGradient id="paint2_linear_258_44" x1="41.53" y1="57.14" x2="87.92" y2="25.48" gradientUnits="userSpaceOnUse">
<stop stop-color="#DAF60B"/>
<stop offset="1" stop-color="#B3D558"/>
</linearGradient>
<linearGradient id="paint3_linear_258_44" x1="62.13" y1="31.64" x2="96.77" y2="46.52" gradientUnits="userSpaceOnUse">
<stop stop-color="#66B90C" stop-opacity="0"/>
<stop offset="1" stop-color="#66B90C"/>
</linearGradient>
<linearGradient id="paint4_linear_258_44" x1="99.97" y1="76.86" x2="53.58" y2="108.52" gradientUnits="userSpaceOnUse">
<stop stop-color="#DAF60B"/>
<stop offset="1" stop-color="#B3D558"/>
</linearGradient>
<linearGradient id="paint5_linear_258_44" x1="79.37" y1="102.36" x2="44.73" y2="87.48" gradientUnits="userSpaceOnUse">
<stop stop-color="#66B90C" stop-opacity="0"/>
<stop offset="1" stop-color="#66B90C"/>
</linearGradient>
<clipPath id="clip0_258_44">
<rect width="141" height="129.5" fill="white"/>
</clipPath>
</defs>
</svg>
