<svg width="130" height="124" viewBox="0 0 130 124" fill="none" xmlns="http://www.w3.org/2000/svg">
<path d="M101.705 90.0594L94.7049 74.9649C93.994 73.4316 94.6624 71.6096 96.201 70.8999L111.778 63.7022C113.319 62.9899 115.147 63.6651 115.855 65.2064L127.235 90.025M65.9016 24.181L56.3067 37.7793C55.3305 39.1617 53.4179 39.4927 52.0332 38.5182L38.0003 28.6511C36.6103 27.6739 36.2813 25.7567 37.2655 24.3743L53.1049 2.12711M26.652 88.0733L43.2474 89.5695C44.9345 89.7204 46.1786 91.2113 46.0274 92.8956L44.4836 109.96C44.3297 111.65 42.8309 112.892 41.1411 112.733L13.9215 110.164M81.7967 88.2878V82.4009C81.7967 81.5032 80.7091 81.0503 80.0698 81.6832L61.7077 99.8576C60.6864 100.869 60.6864 102.519 61.7077 103.531L80.0698 121.705C80.7091 122.338 81.7967 121.885 81.7967 120.987V115.1C81.7967 114.123 82.5926 113.329 83.5714 113.329H110.292C112.523 113.329 114.587 112.14 115.701 110.209L127.333 90.0594H83.5714C82.5926 90.0594 81.7967 89.2649 81.7967 88.2878ZM74.3187 42.2759L69.2122 45.2207C68.4323 45.6709 68.5835 46.8361 69.4536 47.0717L94.4025 53.859C95.7925 54.2377 97.2223 53.4115 97.5884 52.0212L104.175 27.0569C104.403 26.1883 103.469 25.4733 102.69 25.9235L97.5831 28.8683C96.7342 29.3582 95.6493 29.0669 95.1585 28.2195L81.7967 5.11689C80.6799 3.18638 78.6188 2 76.3852 2L53.089 2.01854L74.9686 39.8528C75.4594 40.7003 75.1676 41.7834 74.3187 42.2733V42.2759ZM38.1409 71.75L43.2474 74.6947C44.0273 75.1449 44.9637 74.4299 44.7329 73.5613L38.1462 48.5971C37.7801 47.2068 36.3476 46.3832 34.9603 46.7593L10.0114 53.5465C9.14398 53.7822 8.99278 54.9474 9.77003 55.3976L14.8765 58.3423C15.7254 58.8322 16.0172 59.9153 15.5264 60.7628L2.16998 83.8627C1.05318 85.7932 1.05583 88.1713 2.16998 90.0991L13.8366 110.23L35.7163 72.3961C36.2071 71.5487 37.292 71.2574 38.1409 71.7473V71.75Z" stroke="#B3D558" stroke-width="2.38" stroke-miterlimit="10"/>
</svg>
