<svg width="102" height="102" viewBox="0 0 102 102" fill="none" xmlns="http://www.w3.org/2000/svg">
<path d="M26.7211 7.88161C26.7211 4.08107 29.2759 1 32.4271 1C35.5784 1 38.1332 4.08107 38.1332 7.88161M32.3479 27.1518V34.2635M41.687 27.1518L48.8488 34.2635M21.4426 27.1518L14.2808 34.2635M85.3271 27.1518L92.4889 34.2635M65.0848 27.1518L57.923 34.2635M75.9442 14.9581C75.9442 14.9581 75.9442 16.6707 75.9442 10.9896C75.9442 5.30852 69.917 2.66494 69.917 2.66494C69.917 2.66494 70.5426 4.757 67.2558 8.49741C63.969 12.2357 60.6822 14.1433 60.6822 19.3952C60.6822 24.6471 64.5133 28.1283 75.5897 28.1283M75.5897 34.2635V28.1263C89.1624 28.1263 90.1093 23.8281 90.1093 20.8611C90.1093 17.894 88.7787 15.3458 86.0404 12.7002C83.302 10.0545 82.7535 8.7317 82.9099 6.24155C77.9797 7.64109 75.9442 10.9876 75.9442 10.9876M80.8098 50.8113C77.124 50.8113 74.136 53.7819 74.136 57.4462C74.136 61.1105 77.124 64.0811 80.8098 64.0811C84.4956 64.0811 87.4836 61.1105 87.4836 57.4462C87.4836 53.7819 84.4956 50.8113 80.8098 50.8113ZM80.8098 50.8113V57.4462M20.746 57.4462L16.0306 52.752M16.5123 7.72403H48.1835C49.5453 7.72403 50.6528 8.82293 50.6528 10.1789V12.5758C50.6528 13.345 50.0229 13.9712 49.2492 13.9712H15.4466C14.6729 13.9712 14.043 13.345 14.043 12.5758V10.1789C14.043 8.825 15.1484 7.72403 16.5123 7.72403ZM17.2256 13.9691H47.4702V22.5965C47.4702 25.1095 45.418 27.1497 42.8903 27.1497H21.8075C19.2798 27.1497 17.2277 25.1095 17.2277 22.5965V13.9691H17.2256ZM3.03132 34.2635H98.9687C100.091 34.2635 101 35.1677 101 36.283V43.061C101 44.1763 100.091 45.0804 98.9687 45.0804H3.03132C1.90946 45.0804 1 44.1763 1 43.061V36.283C1 35.1677 1.90946 34.2635 3.03132 34.2635ZM4.32019 45.0804H97.6819V70.8797H4.32019V45.0804ZM87.4836 70.8777H97.6798V101H87.4836V70.8777ZM4.32019 70.8777H14.5164V101H4.32019V70.8777ZM14.5164 83.2123H87.4835V90.9938H14.5164V83.2123ZM79.3103 24.2718C79.3103 26.3147 77.6445 27.9708 75.5897 27.9708C73.5348 27.9708 71.869 26.3147 71.869 24.2718C71.869 22.229 73.5348 20.5729 75.5897 20.5729C77.6445 20.5729 79.3103 22.229 79.3103 24.2718ZM27.4197 57.4462C27.4197 61.1105 24.4318 64.0811 20.746 64.0811C17.0602 64.0811 14.0722 61.1105 14.0722 57.4462C14.0722 53.7819 17.0602 50.8113 20.746 50.8113C24.4318 50.8113 27.4197 53.7819 27.4197 57.4462Z" stroke="white" stroke-width="2" stroke-miterlimit="10"/>
</svg>
